<svg width="26" height="38" viewBox="0 0 26 38" fill="none" xmlns="http://www.w3.org/2000/svg">
<path d="M2.00008 33.6667H24.0001C25.0084 33.6667 25.8334 34.4917 25.8334 35.5001C25.8334 36.5084 25.0084 37.3334 24.0001 37.3334H2.00008C0.991748 37.3334 0.166748 36.5084 0.166748 35.5001C0.166748 34.4917 0.991748 33.6667 2.00008 33.6667ZM13.0001 9.83341C10.9834 9.83341 9.33341 11.4834 9.33341 13.5001C9.33341 15.5167 10.9834 17.1667 13.0001 17.1667C15.0167 17.1667 16.6667 15.5167 16.6667 13.5001C16.6667 11.4834 15.0167 9.83341 13.0001 9.83341ZM13.0001 0.666748C18.9951 0.666748 25.8334 5.17675 25.8334 13.7751C25.8334 19.2384 21.9284 24.9951 14.1184 30.9901C13.4584 31.5034 12.5417 31.5034 11.8817 30.9901C4.07175 24.9767 0.166748 19.2384 0.166748 13.7751C0.166748 5.17675 7.00508 0.666748 13.0001 0.666748Z" fill="white"/>
</svg>
